<svg xmlns="http://www.w3.org/2000/svg" version="1.1" xmlns:xlink="http://www.w3.org/1999/xlink" xmlns:svgjs="http://svgjs.dev/svgjs" width="1000" height="623" viewBox="0 0 1000 623"><g transform="matrix(1,0,0,1,-0.6060606060606233,0.2522267206477409)"><svg viewBox="0 0 396 247" data-background-color="#333366" preserveAspectRatio="xMidYMid meet" height="623" width="1000" xmlns="http://www.w3.org/2000/svg" xmlns:xlink="http://www.w3.org/1999/xlink"><g id="tight-bounds" transform="matrix(1,0,0,1,0.2400000000000091,-0.09999999999999432)"><svg viewBox="0 0 395.52 247.2" height="247.2" width="395.52"><g><svg></svg></g><g><svg viewBox="0 0 395.52 247.2" height="247.2" width="395.52"><g transform="matrix(1,0,0,1,102.49356404494381,47.215199999999996)"><svg viewBox="0 0 190.53287191011236 152.7696" height="152.7696" width="190.53287191011236"><g><svg viewBox="0 0 190.53287191011236 152.7696" height="152.7696" width="190.53287191011236"><g><svg viewBox="0 0 190.53287191011236 152.7696" height="152.7696" width="190.53287191011236"><g><svg viewBox="0 0 190.53287191011236 152.7696" height="152.7696" width="190.53287191011236"><g id="textblocktransform"><svg viewBox="0 0 190.53287191011236 152.7696" height="152.7696" width="190.53287191011236" id="textblock"><g><svg viewBox="0 0 190.53287191011236 152.7696" height="152.7696" width="190.53287191011236"><g transform="matrix(1,0,0,1,0,0)"><svg width="190.53287191011236" viewBox="4.25 -35.150001525878906 44.400001525878906 35.60000228881836" height="152.7696" data-palette-color="#ffff33"><path d="M23.3-3.45L23.3 0 4.25 0 4.25-34.6 8.1-34.6 8.1-3.45 23.3-3.45ZM37.75-31.75L37.75-31.75Q30.25-31.75 30.25-26.1L30.25-26.1Q30.25-22.95 31.97-21.78 33.7-20.6 38.97-19.43 44.25-18.25 46.45-16.38 48.65-14.5 48.65-10.2L48.65-10.2Q48.65 0.45 37.6 0.45L37.6 0.45Q33.95 0.45 28.45-0.4L28.45-0.4 26.65-0.65 27.05-3.85Q33.85-2.95 37.4-2.95L37.4-2.95Q44.8-2.95 44.8-9.9L44.8-9.9Q44.8-12.7 43.17-13.93 41.55-15.15 37.1-16L37.1-16Q31.25-17.25 28.8-19.23 26.35-21.2 26.35-25.85L26.35-25.85Q26.35-35.15 37.5-35.15L37.5-35.15Q41.15-35.15 46.25-34.4L46.25-34.4 47.95-34.15 47.6-30.9Q40.65-31.75 37.75-31.75Z" opacity="1" transform="matrix(1,0,0,1,0,0)" fill="#ffff33" class="undefined-text-0" data-fill-palette-color="primary" id="text-0"></path></svg></g></svg></g></svg></g></svg></g></svg></g></svg></g></svg></g><path d="M284.795 41.215L284.795 0 37.595 0 37.595 247.2 284.795 247.2 284.795 205.985 271.018 205.985 271.018 233.423 51.372 233.423 51.372 13.777 271.018 13.777 271.018 41.215Z" fill="#ffff33" stroke="transparent" data-fill-palette-color="primary"></path></svg></g><defs></defs></svg><rect width="395.52" height="247.2" fill="none" stroke="none" visibility="hidden"></rect></g></svg></g></svg>