<svg xmlns="http://www.w3.org/2000/svg" version="1.1" xmlns:xlink="http://www.w3.org/1999/xlink" xmlns:svgjs="http://svgjs.dev/svgjs" width="1000" height="792" viewBox="0 0 1000 792"><g transform="matrix(1,0,0,1,-0.8202247191011907,-1.1205957446807133)"><svg viewBox="0 0 178 141" data-background-color="#333366" preserveAspectRatio="xMidYMid meet" height="792" width="1000" xmlns="http://www.w3.org/2000/svg" xmlns:xlink="http://www.w3.org/1999/xlink"><g id="tight-bounds" transform="matrix(1,0,0,1,0.146000000000015,0.19949999999997203)"><svg viewBox="0 0 177.70756800000004 140.60052000000002" height="140.60052000000002" width="177.70756800000004"><g><svg viewBox="0 0 177.70756800000004 140.60052000000002" height="140.60052000000002" width="177.70756800000004"><g><svg viewBox="0 0 177.70756800000004 140.60052000000002" height="140.60052000000002" width="177.70756800000004"><g><path d="M0 140.601v-140.601h177.708v140.601z" fill="#ffff33" stroke="transparent" stroke-width="0" rx="0%" data-fill-palette-color="tertiary"></path><path d="M3.283 137.317v-134.034h171.141v134.034z" fill="#333366" stroke="transparent" stroke-width="0" rx="0%" data-fill-palette-color="quaternary"></path><path d="M9.85 130.751v-120.901h158.008v120.901z" fill="#ffff33" stroke="transparent" stroke-width="0" data-fill-palette-color="tertiary"></path></g><g transform="matrix(1,0,0,1,19.699740000000013,19.69974)" id="textblocktransform"><svg viewBox="0 0 138.30808800000003 101.20104000000002" height="101.20104000000002" width="138.30808800000003" id="textblock"><g><svg viewBox="0 0 138.30808800000003 101.20104000000002" height="101.20104000000002" width="138.30808800000003"><g transform="matrix(1,0,0,1,0,0)"><svg width="138.30808800000003" viewBox="2.1500000953674316 -35.5 49.189998626708984 36" height="101.20104000000002" data-palette-color="#333366"><path d="M14.05 0L2.15 0 2.15-33.85Q2.15-34.4 2.35-34.65 2.55-34.9 3.4-34.95 4.25-35 6.25-35L6.25-35 6.25-3.8 14.85-3.8 14.85-0.8Q14.85-0.3 14.63-0.15 14.4 0 14.05 0L14.05 0ZM29.75 0L17.9 0 17.9-34.2Q17.9-34.2 18.02-34.6 18.15-35 18.75-35L18.75-35 30.75-35Q30.75-33.35 30.7-32.6 30.65-31.85 30.5-31.6 30.35-31.35 30-31.35L30-31.35 21.95-31.35 21.95-3.65 30.55-3.65Q30.55-1.95 30.5-1.18 30.45-0.4 30.3-0.2 30.15 0 29.75 0L29.75 0ZM28.75-17.2L18.45-17.2 18.45-20.9 29.5-20.9Q29.5-18.6 29.4-17.9 29.3-17.2 28.75-17.2L28.75-17.2ZM41.95 0.5L41.95 0.5Q39.49 0.5 37.77-0.33 36.05-1.15 34.97-3.2 33.89-5.25 33.39-8.78 32.89-12.3 32.89-17.7L32.89-17.7Q32.89-24.35 33.95-28.25 34.99-32.15 37.12-33.83 39.24-35.5 42.5-35.5L42.5-35.5Q44.89-35.5 46.59-34.63 48.3-33.75 49.34-31.73 50.39-29.7 50.87-26.33 51.34-22.95 51.34-17.85L51.34-17.85Q51.34-10.95 50.37-6.95 49.39-2.95 47.32-1.23 45.25 0.5 41.95 0.5ZM42.09-3.7L42.09-3.7Q43.95-3.7 44.97-5.08 46-6.45 46.47-9.58 46.95-12.7 46.95-17.75L46.95-17.75Q46.95-22.75 46.55-25.73 46.14-28.7 45.17-30 44.2-31.3 42.39-31.3L42.39-31.3Q40.64-31.3 39.55-29.9 38.45-28.5 37.95-25.3 37.45-22.1 37.45-16.7L37.45-16.7Q37.45-12.05 37.87-9.2 38.3-6.35 39.32-5.03 40.34-3.7 42.09-3.7Z" opacity="1" transform="matrix(1,0,0,1,0,0)" fill="#333366" class="undefined-text-0" data-fill-palette-color="quaternary" id="text-0"></path></svg></g></svg></g></svg></g></svg></g><g></g></svg></g><defs></defs></svg><rect width="177.70756800000004" height="140.60052000000002" fill="none" stroke="none" visibility="hidden"></rect></g></svg></g></svg>